<svg width="37" height="38" viewBox="0 0 37 38" fill="none" xmlns="http://www.w3.org/2000/svg">
<path d="M21.1361 3.36144L22.1312 3.26194L22.1312 3.26194L21.1361 3.36144ZM20.9838 2.54161L20.095 3L20.095 3L20.9838 2.54161ZM21.4311 4.81793L22.2261 4.21141L22.2261 4.2114L21.4311 4.81793ZM22.3595 5.20248L22.2261 4.21141L22.2261 4.21141L22.3595 5.20248ZM23.5979 4.38113L24.2311 5.15509L24.2311 5.15509L23.5979 4.38113ZM24.2853 3.90918L24.5896 4.86175L24.5896 4.86175L24.2853 3.90918ZM24.9872 3.94419L25.3848 3.02663L25.3848 3.02663L24.9872 3.94419ZM25.6243 4.4822L24.9172 5.1893L24.9172 5.18931L25.6243 4.4822ZM26.5178 5.37567L27.2249 4.66856L27.2249 4.66856L26.5178 5.37567ZM27.0558 6.01275L27.9733 5.61517L27.9733 5.61516L27.0558 6.01275ZM27.0908 6.71464L28.0434 7.01895L28.0434 7.01894L27.0908 6.71464ZM26.6188 7.4021L25.8449 6.76886L25.8449 6.76886L26.6188 7.4021ZM25.7975 8.64056L24.8064 8.50724L24.8064 8.50725L25.7975 8.64056ZM26.182 9.56893L25.5755 10.364L25.5755 10.364L26.182 9.56893ZM27.6385 9.86385L27.738 8.86882L27.738 8.86882L27.6385 9.86385ZM28.4584 10.0162L28.9168 9.1275L28.9168 9.1275L28.4584 10.0162ZM28.9299 10.5373L29.8599 10.1696L29.8599 10.1696L28.9299 10.5373ZM28.93 13.4626L28 13.095L28 13.095L28.93 13.4626ZM28.4583 13.9838L28.9166 14.8726L28.9166 14.8726L28.4583 13.9838ZM27.6386 14.1361L27.5391 13.1411L27.5065 13.1444L27.4742 13.1497L27.6386 14.1361ZM27.6386 14.1361L27.7381 15.1312L27.7707 15.1279L27.803 15.1225L27.6386 14.1361ZM26.1825 14.4309L25.5762 13.6357L25.5762 13.6357L26.1825 14.4309ZM25.7979 15.3596L24.8068 15.4931L24.8068 15.4931L25.7979 15.3596ZM26.619 16.5976L25.845 17.2308L25.845 17.2308L26.619 16.5976ZM27.0908 17.2848L26.1383 17.5892L26.1383 17.5892L27.0908 17.2848ZM27.0558 17.9869L26.1383 17.5892L26.1383 17.5892L27.0558 17.9869ZM26.5179 18.6238L27.225 19.3309L27.225 19.3309L26.5179 18.6238ZM25.6243 19.5174L24.9172 18.8102L24.9172 18.8103L25.6243 19.5174ZM24.9873 20.0554L25.3849 20.9729L25.3849 20.9729L24.9873 20.0554ZM24.2854 20.0904L23.981 21.0429L23.981 21.0429L24.2854 20.0904ZM23.5979 19.6184L24.2312 18.8444L24.2226 18.8376L23.5979 19.6184ZM23.5979 19.6184L22.9646 20.3924L22.9732 20.3993L23.5979 19.6184ZM22.3595 18.7971L22.4928 17.806L22.4928 17.806L22.3595 18.7971ZM21.4311 19.1816L22.2262 19.7882L22.2262 19.7881L21.4311 19.1816ZM21.1362 20.6383L20.1411 20.5388L20.1411 20.5388L21.1362 20.6383ZM20.9837 21.4585L20.095 21L20.095 21L20.9837 21.4585ZM20.4628 21.9299L20.095 21L20.095 21L20.4628 21.9299ZM17.5373 21.9299L17.905 21L17.905 21L17.5373 21.9299ZM17.0162 21.4584L17.905 21L17.905 21L17.0162 21.4584ZM16.8639 20.6385L15.8688 20.7381L15.8688 20.7381L16.8639 20.6385ZM16.5689 19.182L15.7739 19.7885L15.7739 19.7885L16.5689 19.182ZM15.6406 18.7975L15.5073 17.8064L15.5073 17.8064L15.6406 18.7975ZM14.4021 19.6189L13.7688 18.8449L13.753 18.8579L13.7377 18.8714L14.4021 19.6189ZM14.4021 19.6189L15.0353 20.3928L15.0511 20.3799L15.0664 20.3663L14.4021 19.6189ZM13.7146 20.0908L14.0189 21.0434L14.0189 21.0434L13.7146 20.0908ZM13.0127 20.0558L12.6152 20.9734L12.6152 20.9734L13.0127 20.0558ZM12.3756 19.5178L13.0827 18.8107L13.0827 18.8107L12.3756 19.5178ZM11.4822 18.6243L10.7751 19.3315L10.7751 19.3315L11.4822 18.6243ZM10.9441 17.9873L11.8617 17.5897L11.8617 17.5897L10.9441 17.9873ZM10.9091 17.2854L11.8617 17.5897L11.8617 17.5897L10.9091 17.2854ZM11.3811 16.5979L12.1551 17.2311L12.1551 17.2311L11.3811 16.5979ZM12.2025 15.3594L13.1935 15.4928L13.1935 15.4928L12.2025 15.3594ZM11.8179 14.4311L12.4244 13.636L12.4244 13.636L11.8179 14.4311ZM10.3614 14.1361L10.2619 15.1312L10.2619 15.1312L10.3614 14.1361ZM9.54161 13.9838L10 13.095L10 13.095L9.54161 13.9838ZM9.07005 13.4627L8.14009 13.8304L8.14009 13.8304L9.07005 13.4627ZM9.07008 10.5372L8.14017 10.1694L8.14017 10.1694L9.07008 10.5372ZM9.54152 10.0163L9.08305 9.12757L9.08305 9.12757L9.54152 10.0163ZM10.3616 9.86384V8.86384H10.3117L10.262 8.86881L10.3616 9.86384ZM10.3616 9.86384V10.8638H10.4114L10.4611 10.8589L10.3616 9.86384ZM11.8184 9.56881L11.2118 8.77383L11.2118 8.77383L11.8184 9.56881ZM12.2029 8.64066L13.194 8.50749L13.194 8.50749L12.2029 8.64066ZM11.3813 7.40182L12.1552 6.76858L12.1552 6.76858L11.3813 7.40182ZM10.9091 6.71405L11.8618 6.40988L11.8618 6.40988L10.9091 6.71405ZM10.9441 6.01243L10.0265 5.61498L10.0265 5.61498L10.9441 6.01243ZM11.4823 5.37509L12.1894 6.0822L12.1894 6.0822L11.4823 5.37509ZM12.3757 4.48177L11.6685 3.77466L11.6685 3.77466L12.3757 4.48177ZM13.0128 3.94373L12.6152 3.02615L12.6152 3.02616L13.0128 3.94373ZM13.7146 3.90872L14.0189 2.95614L14.0189 2.95614L13.7146 3.90872ZM14.4022 4.38076L15.0354 3.60681L15.0354 3.60681L14.4022 4.38076ZM15.6404 5.20207L15.7739 4.21101L15.7739 4.21101L15.6404 5.20207ZM16.5691 4.81742L15.7739 4.21101L15.7739 4.21101L16.5691 4.81742ZM16.8639 3.36131L17.8589 3.46081L17.8589 3.46081L16.8639 3.36131ZM17.0162 2.5417L16.1274 2.08341L16.1274 2.08341L17.0162 2.5417ZM17.5374 2.07001L17.905 3L17.905 3L17.5374 2.07001ZM20.4627 2.07005L20.8304 1.1401L20.8304 1.1401L20.4627 2.07005ZM22.1312 3.26194C22.1108 3.05831 22.0912 2.85693 22.0626 2.6868C22.0324 2.50684 21.9828 2.29705 21.8725 2.08322L20.095 3C20.0721 2.95549 20.0769 2.93878 20.0902 3.01798C20.1052 3.10701 20.1181 3.23089 20.1411 3.46094L22.1312 3.26194ZM22.2261 4.2114C22.2894 4.29433 22.2693 4.33101 22.2342 4.13595C22.2008 3.95045 22.1739 3.68915 22.1312 3.26194L20.1411 3.46094C20.1805 3.85459 20.2152 4.20895 20.2658 4.49017C20.3147 4.76184 20.4009 5.11633 20.636 5.42445L22.2261 4.2114ZM22.2261 4.21141L22.2261 4.21141L20.636 5.42444C21.0718 5.99575 21.7806 6.28935 22.4928 6.19355L22.2261 4.21141ZM22.9646 3.60717C22.6323 3.87905 22.4286 4.04481 22.2738 4.15238C22.1111 4.26548 22.1228 4.22531 22.2261 4.21141L22.4928 6.19355C22.8768 6.14188 23.1885 5.95223 23.4152 5.7947C23.6498 5.63163 23.9249 5.4056 24.2311 5.15509L22.9646 3.60717ZM23.981 2.95661C23.7518 3.02983 23.5684 3.14308 23.4198 3.24897C23.2793 3.34907 23.123 3.47759 22.9646 3.60717L24.2311 5.15509C24.41 5.00869 24.5068 4.93022 24.5803 4.87784C24.6457 4.83124 24.6373 4.84651 24.5896 4.86175L23.981 2.95661ZM25.3848 3.02663C24.9408 2.83421 24.442 2.80934 23.981 2.95661L24.5896 4.86175L24.5896 4.86175L25.3848 3.02663ZM26.3314 3.77509C26.1867 3.6304 26.044 3.48696 25.9142 3.37338C25.7768 3.25323 25.6056 3.12228 25.3848 3.02663L24.5896 4.86175C24.5437 4.84184 24.5369 4.82581 24.5973 4.87869C24.6653 4.93813 24.7537 5.02583 24.9172 5.1893L26.3314 3.77509ZM27.2249 4.66856L26.3314 3.77509L24.9172 5.18931L25.8107 6.08277L27.2249 4.66856ZM27.9733 5.61516C27.8777 5.39441 27.7467 5.22316 27.6266 5.08581C27.513 4.95597 27.3696 4.81326 27.2249 4.66856L25.8107 6.08277C25.9741 6.24626 26.0618 6.33469 26.1213 6.40264C26.1742 6.46308 26.1581 6.45629 26.1382 6.41034L27.9733 5.61516ZM28.0434 7.01894C28.1906 6.55797 28.1658 6.05922 27.9733 5.61517L26.1382 6.41034L26.1382 6.41034L28.0434 7.01894ZM27.3928 8.03534C27.5224 7.87696 27.6509 7.72069 27.751 7.58019C27.8569 7.43156 27.9701 7.24814 28.0434 7.01895L26.1382 6.41033C26.1535 6.36263 26.1687 6.35427 26.1221 6.41968C26.0697 6.4932 25.9913 6.58992 25.8449 6.76886L27.3928 8.03534ZM26.7885 8.77387C26.7746 8.87723 26.7345 8.88894 26.8476 8.72619C26.9551 8.57141 27.1209 8.36764 27.3928 8.03534L25.8449 6.76886C25.5943 7.07506 25.3683 7.35016 25.2052 7.58481C25.0477 7.81148 24.8581 8.12317 24.8064 8.50724L26.7885 8.77387ZM26.7885 8.77387L26.7885 8.77386L24.8064 8.50725C24.7106 9.21938 25.0042 9.92816 25.5755 10.364L26.7885 8.77387ZM27.738 8.86882C27.3108 8.82609 27.0495 8.79922 26.864 8.76584C26.6689 8.73073 26.7056 8.7106 26.7885 8.77387L25.5755 10.364C25.8836 10.599 26.2381 10.6853 26.5098 10.7342C26.791 10.7848 27.1454 10.8195 27.539 10.8589L27.738 8.86882ZM28.9168 9.1275C28.703 9.01721 28.4932 8.96759 28.3132 8.93737C28.1431 8.9088 27.9417 8.88918 27.738 8.86882L27.539 10.8589C27.7691 10.8819 27.893 10.8948 27.982 10.9098C28.0612 10.9231 28.0445 10.9279 28 10.905L28.9168 9.1275ZM29.8599 10.1696C29.682 9.71958 29.3469 9.34933 28.9168 9.1275L28 10.905L28 10.905L29.8599 10.1696ZM30 11.3682C30 11.1636 30.0005 10.9613 29.989 10.7891C29.9769 10.607 29.9484 10.3933 29.8599 10.1696L28 10.905C27.9816 10.8584 27.9881 10.8423 27.9935 10.9224C27.9995 11.0125 28 11.137 28 11.3682H30ZM30 12.6319V11.3682H28V12.6319H30ZM29.86 13.8302C29.9484 13.6065 29.9769 13.3929 29.989 13.2108C30.0005 13.0388 30 12.8365 30 12.6319H28C28 12.863 27.9995 12.9875 27.9935 13.0776C27.9881 13.1577 27.9816 13.1416 28 13.095L29.86 13.8302ZM28.9166 14.8726C29.3469 14.6507 29.682 14.2804 29.86 13.8302L28 13.095L28 13.095L28.9166 14.8726ZM27.7381 15.1312C27.9417 15.1108 28.1431 15.0912 28.3132 15.0626C28.4931 15.0324 28.7028 14.9828 28.9166 14.8726L28 13.095C28.0445 13.0721 28.0612 13.077 27.982 13.0902C27.893 13.1052 27.7691 13.1181 27.5391 13.1411L27.7381 15.1312ZM27.803 15.1225L27.803 15.1225L27.4742 13.1497L27.4742 13.1497L27.803 15.1225ZM26.7889 15.2261C26.706 15.2893 26.6693 15.2692 26.8644 15.2341C27.0498 15.2007 27.311 15.1739 27.7381 15.1312L27.5391 13.1411C27.1456 13.1805 26.7913 13.2151 26.5102 13.2657C26.2386 13.3146 25.8842 13.4008 25.5762 13.6357L26.7889 15.2261ZM26.7889 15.2261L26.7889 15.2261L25.5762 13.6357C25.0046 14.0716 24.7108 14.7807 24.8068 15.4931L26.7889 15.2261ZM27.3929 15.9644C27.1212 15.6322 26.9555 15.4285 26.8479 15.2738C26.7348 15.1111 26.775 15.1228 26.7889 15.2261L24.8068 15.4931C24.8585 15.877 25.0481 16.1886 25.2056 16.4152C25.3686 16.6497 25.5946 16.9247 25.845 17.2308L27.3929 15.9644ZM28.0433 16.9803C27.9701 16.7513 27.8569 16.5679 27.751 16.4193C27.651 16.2789 27.5225 16.1227 27.3929 15.9643L25.845 17.2308C25.9914 17.4097 26.0698 17.5064 26.1222 17.5799C26.1688 17.6453 26.1535 17.6369 26.1383 17.5892L28.0433 16.9803ZM27.9733 18.3846C28.1658 17.9404 28.1907 17.4415 28.0433 16.9803L26.1383 17.5892L26.1383 17.5892L27.9733 18.3846ZM27.225 19.3309C27.3697 19.1862 27.5131 19.0436 27.6266 18.9138C27.7467 18.7765 27.8776 18.6053 27.9733 18.3846L26.1383 17.5892C26.1582 17.5433 26.1742 17.5365 26.1213 17.5969C26.0619 17.6648 25.9742 17.7532 25.8108 17.9167L27.225 19.3309ZM26.3314 20.2245L27.225 19.3309L25.8108 17.9167L24.9172 18.8102L26.3314 20.2245ZM25.3849 20.9729C25.6056 20.8773 25.7769 20.7463 25.9142 20.6262C26.044 20.5126 26.1867 20.3692 26.3314 20.2245L24.9172 18.8103C24.7537 18.9737 24.6653 19.0614 24.5974 19.1209C24.5369 19.1737 24.5437 19.1577 24.5897 19.1378L25.3849 20.9729ZM23.981 21.0429C24.442 21.1902 24.9408 21.1653 25.3849 20.9729L24.5897 19.1378L24.5897 19.1378L23.981 21.0429ZM22.9647 20.3924C23.1231 20.522 23.2793 20.6505 23.4198 20.7506C23.5684 20.8565 23.7519 20.9697 23.981 21.0429L24.5897 19.1378C24.6374 19.153 24.6457 19.1683 24.5803 19.1217C24.5068 19.0693 24.4101 18.9909 24.2312 18.8445L22.9647 20.3924ZM22.9732 20.3993L22.9732 20.3993L24.2226 18.8376L24.2226 18.8375L22.9732 20.3993ZM22.2262 19.7881C22.1228 19.7742 22.1111 19.7341 22.2738 19.8472C22.4286 19.9547 22.6324 20.1205 22.9647 20.3924L24.2311 18.8445C23.925 18.5939 23.6499 18.3679 23.4152 18.2048C23.1886 18.0473 22.8769 17.8577 22.4928 17.806L22.2262 19.7881ZM22.2262 19.7881L22.2262 19.7881L22.4928 17.806C21.7807 17.7102 21.0719 18.0038 20.636 18.5751L22.2262 19.7881ZM22.1312 20.7378C22.1739 20.3105 22.2008 20.0492 22.2342 19.8636C22.2693 19.6685 22.2894 19.7052 22.2262 19.7882L20.636 18.5751C20.401 18.8832 20.3147 19.2378 20.2658 19.5094C20.2152 19.7907 20.1805 20.1451 20.1411 20.5388L22.1312 20.7378ZM21.8724 21.917C21.9828 21.7031 22.0324 21.4932 22.0626 21.3132C22.0912 21.143 22.1108 20.9415 22.1312 20.7378L20.1411 20.5388C20.1181 20.769 20.1052 20.8929 20.0902 20.982C20.0769 21.0612 20.072 21.0445 20.095 21L21.8724 21.917ZM20.8306 22.8598C21.2805 22.6819 21.6506 22.3469 21.8724 21.917L20.095 21L20.095 21L20.8306 22.8598ZM19.6316 23C19.8363 23 20.0387 23.0005 20.2109 22.989C20.393 22.9768 20.6068 22.9483 20.8306 22.8598L20.095 21C20.1416 20.9816 20.1577 20.9881 20.0776 20.9935C19.9875 20.9995 19.8629 21 19.6316 21V23ZM18.3682 23H19.6316V21H18.3682V23ZM17.1696 22.8599C17.3933 22.9484 17.607 22.9769 17.7891 22.989C17.9613 23.0005 18.1636 23 18.3682 23V21C18.137 21 18.0125 20.9995 17.9224 20.9935C17.8423 20.9881 17.8584 20.9816 17.905 21L17.1696 22.8599ZM16.1275 21.9168C16.3493 22.3469 16.7196 22.682 17.1696 22.8599L17.905 21L17.905 21L16.1275 21.9168ZM15.8688 20.7381C15.8892 20.9417 15.9088 21.1431 15.9374 21.3132C15.9676 21.4932 16.0172 21.703 16.1275 21.9168L17.905 21C17.9279 21.0445 17.9231 21.0612 17.9098 20.982C17.8948 20.893 17.8819 20.7691 17.8589 20.539L15.8688 20.7381ZM15.7739 19.7885C15.7106 19.7056 15.7307 19.6689 15.7658 19.864C15.7992 20.0495 15.8261 20.3108 15.8688 20.7381L17.8589 20.539C17.8195 20.1454 17.7848 19.791 17.7342 19.5098C17.6853 19.2381 17.599 18.8836 17.364 18.5755L15.7739 19.7885ZM15.7739 19.7885L15.7739 19.7885L17.364 18.5755C16.9282 18.0042 16.2194 17.7106 15.5073 17.8064L15.7739 19.7885ZM15.0353 20.3928C15.3676 20.1209 15.5714 19.9551 15.7262 19.8476C15.8889 19.7345 15.8772 19.7746 15.7739 19.7885L15.5073 17.8064C15.1232 17.858 14.8115 18.0477 14.5848 18.2052C14.3502 18.3683 14.075 18.5944 13.7688 18.8449L15.0353 20.3928ZM15.0664 20.3663L15.0664 20.3663L13.7377 18.8714L13.7377 18.8715L15.0664 20.3663ZM14.0189 21.0434C14.2481 20.9702 14.4315 20.8569 14.5801 20.751C14.7206 20.6509 14.8769 20.5224 15.0353 20.3928L13.7688 18.8449C13.5899 18.9913 13.4932 19.0698 13.4196 19.1222C13.3542 19.1688 13.3626 19.1535 13.4103 19.1383L14.0189 21.0434ZM12.6152 20.9734C13.0592 21.1658 13.5579 21.1907 14.0189 21.0434L13.4103 19.1383L13.4103 19.1383L12.6152 20.9734ZM11.6685 20.2249C11.8132 20.3696 11.9559 20.513 12.0858 20.6266C12.2231 20.7468 12.3944 20.8777 12.6152 20.9734L13.4103 19.1383C13.4562 19.1582 13.463 19.1742 13.4026 19.1213C13.3346 19.0619 13.2462 18.9742 13.0827 18.8107L11.6685 20.2249ZM10.7751 19.3315L11.6685 20.2249L13.0827 18.8107L12.1893 17.9172L10.7751 19.3315ZM10.0266 18.3848C10.1222 18.6056 10.2532 18.7768 10.3733 18.9142C10.4869 19.044 10.6304 19.1868 10.7751 19.3315L12.1893 17.9172C12.0258 17.7538 11.9381 17.6653 11.8786 17.5974C11.8258 17.5369 11.8418 17.5437 11.8617 17.5897L10.0266 18.3848ZM9.95656 16.9811C9.8093 17.4421 9.83417 17.9408 10.0266 18.3848L11.8617 17.5897L11.8617 17.5897L9.95656 16.9811ZM10.6071 15.9647C10.4776 16.123 10.349 16.2793 10.2489 16.4198C10.143 16.5685 10.0298 16.7519 9.95656 16.9811L11.8617 17.5897C11.8465 17.6374 11.8312 17.6457 11.8778 17.5803C11.9302 17.5068 12.0087 17.4101 12.1551 17.2311L10.6071 15.9647ZM11.2114 15.2261C11.2253 15.1228 11.2655 15.1111 11.1524 15.2738C11.0448 15.4286 10.879 15.6324 10.6071 15.9647L12.1551 17.2311C12.4056 16.9249 12.6316 16.6498 12.7947 16.4152C12.9522 16.1885 13.1419 15.8768 13.1935 15.4928L11.2114 15.2261ZM11.2114 15.2261L11.2114 15.2261L13.1935 15.4928C13.2893 14.7806 12.9957 14.0718 12.4244 13.636L11.2114 15.2261ZM10.2619 15.1312C10.6891 15.1739 10.9504 15.2008 11.1359 15.2342C11.331 15.2693 11.2943 15.2894 11.2114 15.2261L12.4244 13.636C12.1163 13.4009 11.7618 13.3147 11.4902 13.2658C11.2089 13.2152 10.8546 13.1805 10.4609 13.1411L10.2619 15.1312ZM9.08323 14.8725C9.29705 14.9828 9.50683 15.0324 9.6868 15.0626C9.85693 15.0912 10.0583 15.1108 10.2619 15.1312L10.4609 13.1411C10.2309 13.1181 10.107 13.1052 10.018 13.0902C9.93878 13.0769 9.95549 13.0721 10 13.095L9.08323 14.8725ZM8.14009 13.8304C8.31803 14.2804 8.65311 14.6507 9.08323 14.8725L10 13.095L10 13.095L8.14009 13.8304ZM8 12.6318C8 12.8364 7.99948 13.0387 8.01098 13.2109C8.02314 13.3929 8.05163 13.6066 8.14009 13.8304L10 13.095C10.0184 13.1416 10.0119 13.1577 10.0065 13.0776C10.0005 12.9875 10 12.863 10 12.6318H8ZM8 11.3683V12.6318H10V11.3683H8ZM8.14017 10.1694C8.05166 10.3932 8.02315 10.607 8.01098 10.7891C7.99948 10.9613 8 11.1637 8 11.3683H10C10 11.1371 10.0005 11.0125 10.0065 10.9224C10.0119 10.8423 10.0184 10.8584 10 10.905L8.14017 10.1694ZM9.08305 9.12757C8.65308 9.34939 8.3181 9.71954 8.14017 10.1694L10 10.905L10 10.905L9.08305 9.12757ZM10.262 8.86881C10.0584 8.88917 9.85694 8.9088 9.68677 8.93737C9.50676 8.9676 9.29692 9.01724 9.08305 9.12757L10 10.905C9.95548 10.928 9.93877 10.9231 10.018 10.9098C10.107 10.8948 10.2309 10.8819 10.4611 10.8589L10.262 8.86881ZM10.3616 8.86384H10.3616V10.8638H10.3616V8.86384ZM10.3616 8.86384H10.3616V10.8638H10.3616V8.86384ZM11.2118 8.77383C11.2947 8.71055 11.3314 8.73069 11.1363 8.7658C10.9507 8.7992 10.6894 8.82607 10.2621 8.86881L10.4611 10.8589C10.8548 10.8195 11.2093 10.7848 11.4906 10.7342C11.7623 10.6853 12.1169 10.5989 12.4251 10.3638L11.2118 8.77383ZM11.2118 8.77383L11.2118 8.77383L12.4251 10.3638C12.9961 9.92801 13.2896 9.21944 13.194 8.50749L11.2118 8.77383ZM10.6073 8.03506C10.8793 8.36746 11.0451 8.5713 11.1527 8.72614C11.2659 8.88895 11.2257 8.87724 11.2118 8.77383L13.194 8.50749C13.1423 8.1233 12.9526 7.81151 12.7951 7.58478C12.6319 7.35006 12.4058 7.07487 12.1552 6.76858L10.6073 8.03506ZM9.95652 7.01822C10.0297 7.24751 10.143 7.43102 10.249 7.5797C10.3491 7.72027 10.4777 7.8766 10.6073 8.03506L12.1552 6.76858C12.0088 6.58956 11.9303 6.49279 11.8779 6.41923C11.8312 6.35379 11.8465 6.36215 11.8618 6.40988L9.95652 7.01822ZM10.0265 5.61498C9.83424 6.05887 9.80938 6.5574 9.95652 7.01822L11.8618 6.40988L11.8618 6.40988L10.0265 5.61498ZM10.7752 4.66798C10.6305 4.81274 10.487 4.9555 10.3734 5.08539C10.2532 5.2228 10.1222 5.39412 10.0265 5.61498L11.8618 6.40988C11.8418 6.45585 11.8258 6.46265 11.8787 6.40219C11.9382 6.33421 12.0259 6.24574 12.1894 6.0822L10.7752 4.66798ZM11.6685 3.77466L10.7752 4.66798L12.1894 6.0822L13.0828 5.18888L11.6685 3.77466ZM11.6685 3.77466L11.6685 3.77466L13.0828 5.18888L13.0828 5.18887L11.6685 3.77466ZM12.6152 3.02616C12.3944 3.12181 12.2232 3.25276 12.0858 3.37292C11.956 3.48651 11.8133 3.62995 11.6685 3.77466L13.0828 5.18887C13.2463 5.02538 13.3347 4.93768 13.4026 4.87824C13.4631 4.82536 13.4563 4.84139 13.4103 4.8613L12.6152 3.02616ZM14.0189 2.95614C13.558 2.80889 13.0592 2.83377 12.6152 3.02615L13.4103 4.8613L13.4103 4.8613L14.0189 2.95614ZM15.0354 3.60681C14.877 3.47719 14.7207 3.34865 14.5802 3.24853C14.4316 3.14264 14.2481 3.02936 14.0189 2.95614L13.4103 4.8613C13.3626 4.84606 13.3543 4.83078 13.4197 4.8774C13.4932 4.9298 13.59 5.00829 13.769 5.15472L15.0354 3.60681ZM15.7739 4.21101C15.8773 4.22493 15.889 4.26509 15.7262 4.15198C15.5714 4.04441 15.3677 3.87865 15.0354 3.60681L13.769 5.15472C14.0751 5.40521 14.3502 5.63122 14.5848 5.79427C14.8114 5.95176 15.123 6.14141 15.507 6.19312L15.7739 4.21101ZM15.7739 4.21101L15.7739 4.21101L15.507 6.19312C16.2193 6.28905 16.9284 5.99536 17.3642 5.42382L15.7739 4.21101ZM15.8688 3.2618C15.8261 3.6889 15.7993 3.95012 15.7659 4.13558C15.7308 4.33059 15.7107 4.29392 15.7739 4.21101L17.3642 5.42382C17.5992 5.11576 17.6854 4.76136 17.7343 4.48976C17.7849 4.20861 17.8196 3.85435 17.8589 3.46081L15.8688 3.2618ZM16.1274 2.08341C16.0172 2.29719 15.9676 2.50692 15.9374 2.68683C15.9088 2.85692 15.8892 3.05824 15.8688 3.2618L17.8589 3.46081C17.8819 3.23082 17.8948 3.10698 17.9098 3.01798C17.923 2.9388 17.9279 2.9555 17.905 3L16.1274 2.08341ZM17.1698 1.14002C16.7196 1.31796 16.3492 1.65315 16.1274 2.08341L17.905 3L17.905 3L17.1698 1.14002ZM18.3681 1C18.1635 1 17.9612 0.999483 17.7892 1.01097C17.6071 1.02313 17.3935 1.05161 17.1698 1.14002L17.905 3C17.8584 3.0184 17.8423 3.01188 17.9224 3.00653C18.0125 3.00052 18.137 3 18.3681 3V1ZM19.6318 1H18.3681V3H19.6318V1ZM20.8304 1.1401C20.6066 1.05163 20.393 1.02314 20.2109 1.01098C20.0387 0.999483 19.8364 1 19.6318 1V3C19.863 3 19.9875 3.00052 20.0776 3.00653C20.1577 3.01188 20.1416 3.01841 20.095 3L20.8304 1.1401ZM21.8725 2.08322C21.6507 1.65312 21.2804 1.31803 20.8304 1.1401L20.095 3L20.095 3L21.8725 2.08322ZM22 12C22 13.6569 20.6569 15 19 15V17C21.7614 17 24 14.7614 24 12H22ZM19 9C20.6569 9 22 10.3431 22 12H24C24 9.23858 21.7614 7 19 7V9ZM16 12C16 10.3431 17.3431 9 19 9V7C16.2386 7 14 9.23858 14 12H16ZM19 15C17.3431 15 16 13.6569 16 12H14C14 14.7614 16.2386 17 19 17V15Z" fill="#33363F"/>
<path d="M0.841797 32.2402L1.91406 32.1465C1.96484 32.5762 2.08203 32.9297 2.26562 33.207C2.45312 33.4805 2.74219 33.7031 3.13281 33.875C3.52344 34.043 3.96289 34.127 4.45117 34.127C4.88477 34.127 5.26758 34.0625 5.59961 33.9336C5.93164 33.8047 6.17773 33.6289 6.33789 33.4062C6.50195 33.1797 6.58398 32.9336 6.58398 32.668C6.58398 32.3984 6.50586 32.1641 6.34961 31.9648C6.19336 31.7617 5.93555 31.5918 5.57617 31.4551C5.3457 31.3652 4.83594 31.2266 4.04688 31.0391C3.25781 30.8477 2.70508 30.668 2.38867 30.5C1.97852 30.2852 1.67188 30.0195 1.46875 29.7031C1.26953 29.3828 1.16992 29.0254 1.16992 28.6309C1.16992 28.1973 1.29297 27.793 1.53906 27.418C1.78516 27.0391 2.14453 26.752 2.61719 26.5566C3.08984 26.3613 3.61523 26.2637 4.19336 26.2637C4.83008 26.2637 5.39062 26.3672 5.875 26.5742C6.36328 26.7773 6.73828 27.0781 7 27.4766C7.26172 27.875 7.40234 28.3262 7.42188 28.8301L6.33203 28.9121C6.27344 28.3691 6.07422 27.959 5.73438 27.6816C5.39844 27.4043 4.90039 27.2656 4.24023 27.2656C3.55273 27.2656 3.05078 27.3926 2.73438 27.6465C2.42188 27.8965 2.26562 28.1992 2.26562 28.5547C2.26562 28.8633 2.37695 29.1172 2.59961 29.3164C2.81836 29.5156 3.38867 29.7207 4.31055 29.9316C5.23633 30.1387 5.87109 30.3203 6.21484 30.4766C6.71484 30.707 7.08398 31 7.32227 31.3555C7.56055 31.707 7.67969 32.1133 7.67969 32.5742C7.67969 33.0312 7.54883 33.4629 7.28711 33.8691C7.02539 34.2715 6.64844 34.5859 6.15625 34.8125C5.66797 35.0352 5.11719 35.1465 4.50391 35.1465C3.72656 35.1465 3.07422 35.0332 2.54688 34.8066C2.02344 34.5801 1.61133 34.2402 1.31055 33.7871C1.01367 33.3301 0.857422 32.8145 0.841797 32.2402ZM13.3574 32.9961L14.4473 33.1309C14.2754 33.7676 13.957 34.2617 13.4922 34.6133C13.0273 34.9648 12.4336 35.1406 11.7109 35.1406C10.8008 35.1406 10.0781 34.8613 9.54297 34.3027C9.01172 33.7402 8.74609 32.9531 8.74609 31.9414C8.74609 30.8945 9.01562 30.082 9.55469 29.5039C10.0938 28.9258 10.793 28.6367 11.6523 28.6367C12.4844 28.6367 13.1641 28.9199 13.6914 29.4863C14.2188 30.0527 14.4824 30.8496 14.4824 31.877C14.4824 31.9395 14.4805 32.0332 14.4766 32.1582H9.83594C9.875 32.8418 10.0684 33.3652 10.416 33.7285C10.7637 34.0918 11.1973 34.2734 11.7168 34.2734C12.1035 34.2734 12.4336 34.1719 12.707 33.9688C12.9805 33.7656 13.1973 33.4414 13.3574 32.9961ZM9.89453 31.291H13.3691C13.3223 30.7676 13.1895 30.375 12.9707 30.1133C12.6348 29.707 12.1992 29.5039 11.6641 29.5039C11.1797 29.5039 10.7715 29.666 10.4395 29.9902C10.1113 30.3145 9.92969 30.748 9.89453 31.291ZM18.0801 34.0566L18.2324 34.9883C17.9355 35.0508 17.6699 35.082 17.4355 35.082C17.0527 35.082 16.7559 35.0215 16.5449 34.9004C16.334 34.7793 16.1855 34.6211 16.0996 34.4258C16.0137 34.2266 15.9707 33.8105 15.9707 33.1777V29.5977H15.1973V28.7773H15.9707V27.2363L17.0195 26.6035V28.7773H18.0801V29.5977H17.0195V33.2363C17.0195 33.5371 17.0371 33.7305 17.0723 33.8164C17.1113 33.9023 17.1719 33.9707 17.2539 34.0215C17.3398 34.0723 17.4609 34.0977 17.6172 34.0977C17.7344 34.0977 17.8887 34.084 18.0801 34.0566ZM21.4199 34.0566L21.5723 34.9883C21.2754 35.0508 21.0098 35.082 20.7754 35.082C20.3926 35.082 20.0957 35.0215 19.8848 34.9004C19.6738 34.7793 19.5254 34.6211 19.4395 34.4258C19.3535 34.2266 19.3105 33.8105 19.3105 33.1777V29.5977H18.5371V28.7773H19.3105V27.2363L20.3594 26.6035V28.7773H21.4199V29.5977H20.3594V33.2363C20.3594 33.5371 20.377 33.7305 20.4121 33.8164C20.4512 33.9023 20.5117 33.9707 20.5938 34.0215C20.6797 34.0723 20.8008 34.0977 20.957 34.0977C21.0742 34.0977 21.2285 34.084 21.4199 34.0566ZM22.4629 27.623V26.4102H23.5176V27.623H22.4629ZM22.4629 35V28.7773H23.5176V35H22.4629ZM25.1289 35V28.7773H26.0781V29.6621C26.5352 28.9785 27.1953 28.6367 28.0586 28.6367C28.4336 28.6367 28.7773 28.7051 29.0898 28.8418C29.4062 28.9746 29.6426 29.1504 29.7988 29.3691C29.9551 29.5879 30.0645 29.8477 30.127 30.1484C30.166 30.3438 30.1855 30.6855 30.1855 31.1738V35H29.1309V31.2148C29.1309 30.7852 29.0898 30.4648 29.0078 30.2539C28.9258 30.0391 28.7793 29.8691 28.5684 29.7441C28.3613 29.6152 28.1172 29.5508 27.8359 29.5508C27.3867 29.5508 26.998 29.6934 26.6699 29.9785C26.3457 30.2637 26.1836 30.8047 26.1836 31.6016V35H25.1289ZM31.6152 35.5156L32.6406 35.668C32.6836 35.9844 32.8027 36.2148 32.998 36.3594C33.2598 36.5547 33.6172 36.6523 34.0703 36.6523C34.5586 36.6523 34.9355 36.5547 35.2012 36.3594C35.4668 36.1641 35.6465 35.8906 35.7402 35.5391C35.7949 35.3242 35.8203 34.873 35.8164 34.1855C35.3555 34.7285 34.7812 35 34.0938 35C33.2383 35 32.5762 34.6914 32.1074 34.0742C31.6387 33.457 31.4043 32.7168 31.4043 31.8535C31.4043 31.2598 31.5117 30.7129 31.7266 30.2129C31.9414 29.709 32.252 29.3203 32.6582 29.0469C33.0684 28.7734 33.5488 28.6367 34.0996 28.6367C34.834 28.6367 35.4395 28.9336 35.916 29.5273V28.7773H36.8887V34.1562C36.8887 35.125 36.7891 35.8105 36.5898 36.2129C36.3945 36.6191 36.082 36.9395 35.6523 37.1738C35.2266 37.4082 34.7012 37.5254 34.0762 37.5254C33.334 37.5254 32.7344 37.3574 32.2773 37.0215C31.8203 36.6895 31.5996 36.1875 31.6152 35.5156ZM32.4883 31.7773C32.4883 32.5938 32.6504 33.1895 32.9746 33.5645C33.2988 33.9395 33.7051 34.127 34.1934 34.127C34.6777 34.127 35.084 33.9414 35.4121 33.5703C35.7402 33.1953 35.9043 32.6094 35.9043 31.8125C35.9043 31.0508 35.7344 30.4766 35.3945 30.0898C35.0586 29.7031 34.6523 29.5098 34.1758 29.5098C33.707 29.5098 33.3086 29.7012 32.9805 30.084C32.6523 30.4629 32.4883 31.0273 32.4883 31.7773Z" fill="black"/>
</svg>
