<svg width="27" height="36" viewBox="0 0 27 36" fill="none" xmlns="http://www.w3.org/2000/svg">
<path fill-rule="evenodd" clip-rule="evenodd" d="M13 3C8.02944 3 4 7.02944 4 12C4 16.9706 8.02944 21 13 21H17.5C18.8978 21 19.5967 21 20.1481 20.7716C20.8831 20.4672 21.4672 19.8831 21.7716 19.1481C22 18.5967 22 17.8978 22 16.5V12C22 7.02944 17.9706 3 13 3ZM9 11C9 10.4477 9.44772 10 10 10H16C16.5523 10 17 10.4477 17 11C17 11.5523 16.5523 12 16 12H10C9.44772 12 9 11.5523 9 11ZM12 15C12 14.4477 12.4477 14 13 14H16C16.5523 14 17 14.4477 17 15C17 15.5523 16.5523 16 16 16H13C12.4477 16 12 15.5523 12 15Z" fill="#222222"/>
<path d="M6.02734 31.8418L7.70898 32.375C7.45117 33.3125 7.02148 34.0098 6.41992 34.4668C5.82227 34.9199 5.0625 35.1465 4.14062 35.1465C3 35.1465 2.0625 34.7578 1.32812 33.9805C0.59375 33.1992 0.226562 32.1328 0.226562 30.7812C0.226562 29.3516 0.595703 28.2422 1.33398 27.4531C2.07227 26.6602 3.04297 26.2637 4.24609 26.2637C5.29688 26.2637 6.15039 26.5742 6.80664 27.1953C7.19727 27.5625 7.49023 28.0898 7.68555 28.7773L5.96875 29.1875C5.86719 28.7422 5.6543 28.3906 5.33008 28.1328C5.00977 27.875 4.61914 27.7461 4.1582 27.7461C3.52148 27.7461 3.00391 27.9746 2.60547 28.4316C2.21094 28.8887 2.01367 29.6289 2.01367 30.6523C2.01367 31.7383 2.20898 32.5117 2.59961 32.9727C2.99023 33.4336 3.49805 33.6641 4.12305 33.6641C4.58398 33.6641 4.98047 33.5176 5.3125 33.2246C5.64453 32.9316 5.88281 32.4707 6.02734 31.8418ZM10.832 26.4102V29.5684C11.3633 28.9473 11.998 28.6367 12.7363 28.6367C13.1152 28.6367 13.457 28.707 13.7617 28.8477C14.0664 28.9883 14.2949 29.168 14.4473 29.3867C14.6035 29.6055 14.709 29.8477 14.7637 30.1133C14.8223 30.3789 14.8516 30.791 14.8516 31.3496V35H13.2051V31.7129C13.2051 31.0605 13.1738 30.6465 13.1113 30.4707C13.0488 30.2949 12.9375 30.1562 12.7773 30.0547C12.6211 29.9492 12.4238 29.8965 12.1855 29.8965C11.9121 29.8965 11.668 29.9629 11.4531 30.0957C11.2383 30.2285 11.0801 30.4297 10.9785 30.6992C10.8809 30.9648 10.832 31.3594 10.832 31.8828V35H9.18555V26.4102H10.832ZM17.7578 30.6758L16.2637 30.4062C16.4316 29.8047 16.7207 29.3594 17.1309 29.0703C17.541 28.7812 18.1504 28.6367 18.959 28.6367C19.6934 28.6367 20.2402 28.7246 20.5996 28.9004C20.959 29.0723 21.2109 29.293 21.3555 29.5625C21.5039 29.8281 21.5781 30.3184 21.5781 31.0332L21.5605 32.9551C21.5605 33.502 21.5859 33.9062 21.6367 34.168C21.6914 34.4258 21.791 34.7031 21.9355 35H20.3066C20.2637 34.8906 20.2109 34.7285 20.1484 34.5137C20.1211 34.416 20.1016 34.3516 20.0898 34.3203C19.8086 34.5938 19.5078 34.7988 19.1875 34.9355C18.8672 35.0723 18.5254 35.1406 18.1621 35.1406C17.5215 35.1406 17.0156 34.9668 16.6445 34.6191C16.2773 34.2715 16.0938 33.832 16.0938 33.3008C16.0938 32.9492 16.1777 32.6367 16.3457 32.3633C16.5137 32.0859 16.748 31.875 17.0488 31.7305C17.3535 31.582 17.791 31.4531 18.3613 31.3438C19.1309 31.1992 19.6641 31.0645 19.9609 30.9395V30.7754C19.9609 30.459 19.8828 30.2344 19.7266 30.1016C19.5703 29.9648 19.2754 29.8965 18.8418 29.8965C18.5488 29.8965 18.3203 29.9551 18.1562 30.0723C17.9922 30.1855 17.8594 30.3867 17.7578 30.6758ZM19.9609 32.0117C19.75 32.082 19.416 32.166 18.959 32.2637C18.502 32.3613 18.2031 32.457 18.0625 32.5508C17.8477 32.7031 17.7402 32.8965 17.7402 33.1309C17.7402 33.3613 17.8262 33.5605 17.998 33.7285C18.1699 33.8965 18.3887 33.9805 18.6543 33.9805C18.9512 33.9805 19.2344 33.8828 19.5039 33.6875C19.7031 33.5391 19.834 33.3574 19.8965 33.1426C19.9395 33.002 19.9609 32.7344 19.9609 32.3398V32.0117ZM26.0605 28.7773V30.0898H24.9355V32.5977C24.9355 33.1055 24.9453 33.4023 24.9648 33.4883C24.9883 33.5703 25.0371 33.6387 25.1113 33.6934C25.1895 33.748 25.2832 33.7754 25.3926 33.7754C25.5449 33.7754 25.7656 33.7227 26.0547 33.6172L26.1953 34.8945C25.8125 35.0586 25.3789 35.1406 24.8945 35.1406C24.5977 35.1406 24.3301 35.0918 24.0918 34.9941C23.8535 34.8926 23.6777 34.7637 23.5645 34.6074C23.4551 34.4473 23.3789 34.2324 23.3359 33.9629C23.3008 33.7715 23.2832 33.3848 23.2832 32.8027V30.0898H22.5273V28.7773H23.2832V27.541L24.9355 26.5801V28.7773H26.0605Z" fill="black"/>
</svg>
