<svg width="33" height="38" viewBox="0 0 33 38" fill="none" xmlns="http://www.w3.org/2000/svg">
<circle cx="16" cy="8" r="3" stroke="#33363F" stroke-width="2" stroke-linecap="round"/>
<path d="M19.2679 8C19.5332 7.54063 19.97 7.20543 20.4824 7.06815C20.9947 6.93086 21.5406 7.00273 22 7.26795C22.4594 7.53317 22.7946 7.97 22.9319 8.48236C23.0691 8.99472 22.9973 9.54063 22.7321 10C22.4668 10.4594 22.03 10.7946 21.5176 10.9319C21.0053 11.0691 20.4594 10.9973 20 10.7321C19.5406 10.4668 19.2054 10.03 19.0681 9.51764C18.9309 9.00528 19.0027 8.45937 19.2679 8L19.2679 8Z" stroke="#33363F" stroke-width="2"/>
<path d="M9.26795 8C9.53317 7.54063 9.97 7.20543 10.4824 7.06815C10.9947 6.93086 11.5406 7.00273 12 7.26795C12.4594 7.53317 12.7946 7.97 12.9319 8.48236C13.0691 8.99472 12.9973 9.54063 12.7321 10C12.4668 10.4594 12.03 10.7946 11.5176 10.9319C11.0053 11.0691 10.4594 10.9973 10 10.7321C9.54063 10.4668 9.20543 10.03 9.06815 9.51764C8.93086 9.00528 9.00273 8.45937 9.26795 8L9.26795 8Z" stroke="#33363F" stroke-width="2"/>
<path d="M20.8816 18L19.9013 18.1974L20.0629 19H20.8816V18ZM24.7202 16.9042L25.6627 16.5699L24.7202 16.9042ZM18.7808 14.7105L18.176 13.9142L17.0194 14.7927L18.2527 15.5597L18.7808 14.7105ZM23.8672 17H20.8816V19H23.8672V17ZM23.7777 17.2384C23.7707 17.2186 23.7642 17.181 23.7725 17.1354C23.7804 17.0921 23.7982 17.0593 23.8151 17.0383C23.8474 16.9982 23.874 17 23.8672 17V19C25.0132 19 26.1414 17.9194 25.6627 16.5699L23.7777 17.2384ZM21 15C22.6416 15 23.4027 16.1811 23.7777 17.2384L25.6627 16.5699C25.1976 15.2588 23.9485 13 21 13V15ZM19.3857 15.5069C19.7702 15.2148 20.282 15 21 15V13C19.8381 13 18.9028 13.3622 18.176 13.9142L19.3857 15.5069ZM18.2527 15.5597C19.2918 16.206 19.7271 17.3324 19.9013 18.1974L21.8619 17.8026C21.644 16.7204 21.0374 14.9364 19.309 13.8614L18.2527 15.5597Z" fill="#33363F"/>
<path d="M13.2192 14.7105L13.7473 15.5597L14.9806 14.7927L13.824 13.9142L13.2192 14.7105ZM7.2798 16.9041L8.22227 17.2384L8.22227 17.2384L7.2798 16.9041ZM11.1184 18V19H11.937L12.0987 18.1974L11.1184 18ZM11 15C11.718 15 12.2299 15.2148 12.6143 15.5069L13.824 13.9142C13.0972 13.3621 12.1619 13 11 13V15ZM8.22227 17.2384C8.59732 16.1811 9.35842 15 11 15V13C8.0515 13 6.80238 15.2587 6.33733 16.5699L8.22227 17.2384ZM8.13278 17C8.126 17 8.15264 16.9982 8.18486 17.0383C8.20176 17.0593 8.21961 17.0921 8.22748 17.1354C8.2358 17.181 8.22931 17.2186 8.22227 17.2384L6.33733 16.5699C5.85864 17.9194 6.98677 19 8.13278 19V17ZM11.1184 17H8.13278V19H11.1184V17ZM12.0987 18.1974C12.2729 17.3324 12.7081 16.206 13.7473 15.5597L12.6911 13.8614C10.9626 14.9363 10.356 16.7203 10.138 17.8026L12.0987 18.1974Z" fill="#33363F"/>
<path d="M16 14C19.5715 14 20.5919 16.5512 20.8834 18.0089C20.9917 18.5504 20.5523 19 20 19H12C11.4477 19 11.0083 18.5504 11.1166 18.0089C11.4081 16.5512 12.4285 14 16 14Z" stroke="#33363F" stroke-width="2" stroke-linecap="round"/>
<path d="M4.75781 31.6309V30.623L8.39648 30.6172V33.8047C7.83789 34.25 7.26172 34.5859 6.66797 34.8125C6.07422 35.0352 5.46484 35.1465 4.83984 35.1465C3.99609 35.1465 3.22852 34.9668 2.53711 34.6074C1.84961 34.2441 1.33008 33.7207 0.978516 33.0371C0.626953 32.3535 0.451172 31.5898 0.451172 30.7461C0.451172 29.9102 0.625 29.1309 0.972656 28.4082C1.32422 27.6816 1.82812 27.1426 2.48438 26.791C3.14062 26.4395 3.89648 26.2637 4.75195 26.2637C5.37305 26.2637 5.93359 26.3652 6.43359 26.5684C6.9375 26.7676 7.33203 27.0469 7.61719 27.4062C7.90234 27.7656 8.11914 28.2344 8.26758 28.8125L7.24219 29.0938C7.11328 28.6562 6.95312 28.3125 6.76172 28.0625C6.57031 27.8125 6.29688 27.6133 5.94141 27.4648C5.58594 27.3125 5.19141 27.2363 4.75781 27.2363C4.23828 27.2363 3.78906 27.3164 3.41016 27.4766C3.03125 27.6328 2.72461 27.8398 2.49023 28.0977C2.25977 28.3555 2.08008 28.6387 1.95117 28.9473C1.73242 29.4785 1.62305 30.0547 1.62305 30.6758C1.62305 31.4414 1.75391 32.082 2.01562 32.5977C2.28125 33.1133 2.66602 33.4961 3.16992 33.7461C3.67383 33.9961 4.20898 34.1211 4.77539 34.1211C5.26758 34.1211 5.74805 34.0273 6.2168 33.8398C6.68555 33.6484 7.04102 33.4453 7.2832 33.2305V31.6309H4.75781ZM9.93164 35V28.7773H10.8809V29.7207C11.123 29.2793 11.3457 28.9883 11.5488 28.8477C11.7559 28.707 11.9824 28.6367 12.2285 28.6367C12.584 28.6367 12.9453 28.75 13.3125 28.9766L12.9492 29.9551C12.6914 29.8027 12.4336 29.7266 12.1758 29.7266C11.9453 29.7266 11.7383 29.7969 11.5547 29.9375C11.3711 30.0742 11.2402 30.2656 11.1621 30.5117C11.0449 30.8867 10.9863 31.2969 10.9863 31.7422V35H9.93164ZM13.5469 31.8887C13.5469 30.7363 13.8672 29.8828 14.5078 29.3281C15.043 28.8672 15.6953 28.6367 16.4648 28.6367C17.3203 28.6367 18.0195 28.918 18.5625 29.4805C19.1055 30.0391 19.377 30.8125 19.377 31.8008C19.377 32.6016 19.2559 33.2324 19.0137 33.6934C18.7754 34.1504 18.4258 34.5059 17.9648 34.7598C17.5078 35.0137 17.0078 35.1406 16.4648 35.1406C15.5938 35.1406 14.8887 34.8613 14.3496 34.3027C13.8145 33.7441 13.5469 32.9395 13.5469 31.8887ZM14.6309 31.8887C14.6309 32.6855 14.8047 33.2832 15.1523 33.6816C15.5 34.0762 15.9375 34.2734 16.4648 34.2734C16.9883 34.2734 17.4238 34.0742 17.7715 33.6758C18.1191 33.2773 18.293 32.6699 18.293 31.8535C18.293 31.084 18.1172 30.502 17.7656 30.1074C17.418 29.709 16.9844 29.5098 16.4648 29.5098C15.9375 29.5098 15.5 29.707 15.1523 30.1016C14.8047 30.4961 14.6309 31.0918 14.6309 31.8887ZM24.6973 35V34.0859C24.2129 34.7891 23.5547 35.1406 22.7227 35.1406C22.3555 35.1406 22.0117 35.0703 21.6914 34.9297C21.375 34.7891 21.1387 34.6133 20.9824 34.4023C20.8301 34.1875 20.7227 33.9258 20.6602 33.6172C20.6172 33.4102 20.5957 33.082 20.5957 32.6328V28.7773H21.6504V32.2285C21.6504 32.7793 21.6719 33.1504 21.7148 33.3418C21.7812 33.6191 21.9219 33.8379 22.1367 33.998C22.3516 34.1543 22.6172 34.2324 22.9336 34.2324C23.25 34.2324 23.5469 34.1523 23.8242 33.9922C24.1016 33.8281 24.2969 33.6074 24.4102 33.3301C24.5273 33.0488 24.5859 32.6426 24.5859 32.1113V28.7773H25.6406V35H24.6973ZM27.2988 37.3848V28.7773H28.2598V29.5859C28.4863 29.2695 28.7422 29.0332 29.0273 28.877C29.3125 28.7168 29.6582 28.6367 30.0645 28.6367C30.5957 28.6367 31.0645 28.7734 31.4707 29.0469C31.877 29.3203 32.1836 29.707 32.3906 30.207C32.5977 30.7031 32.7012 31.248 32.7012 31.8418C32.7012 32.4785 32.5859 33.0527 32.3555 33.5645C32.1289 34.0723 31.7969 34.4629 31.3594 34.7363C30.9258 35.0059 30.4688 35.1406 29.9883 35.1406C29.6367 35.1406 29.3203 35.0664 29.0391 34.918C28.7617 34.7695 28.5332 34.582 28.3535 34.3555V37.3848H27.2988ZM28.2539 31.9238C28.2539 32.7246 28.416 33.3164 28.7402 33.6992C29.0645 34.082 29.457 34.2734 29.918 34.2734C30.3867 34.2734 30.7871 34.0762 31.1191 33.6816C31.4551 33.2832 31.623 32.668 31.623 31.8359C31.623 31.043 31.459 30.4492 31.1309 30.0547C30.8066 29.6602 30.418 29.4629 29.9648 29.4629C29.5156 29.4629 29.1172 29.6738 28.7695 30.0957C28.4258 30.5137 28.2539 31.123 28.2539 31.9238Z" fill="black"/>
</svg>
