<svg width="34" height="36" viewBox="0 0 34 36" fill="none" xmlns="http://www.w3.org/2000/svg">
<circle cx="17" cy="10" r="3" stroke="#33363F" stroke-width="2" stroke-linecap="round"/>
<circle cx="17" cy="12" r="9" stroke="#33363F" stroke-width="2"/>
<path d="M22.7805 18.8264C22.9076 18.7566 22.9678 18.6055 22.914 18.4708C22.5284 17.5045 21.7856 16.6534 20.7814 16.0332C19.6966 15.3632 18.3674 15 17 15C15.6326 15 14.3034 15.3632 13.2186 16.0332C12.2144 16.6534 11.4716 17.5045 11.086 18.4708C11.0322 18.6055 11.0924 18.7566 11.2195 18.8264V18.8264C14.8197 20.803 19.1803 20.803 22.7805 18.8264V18.8264Z" fill="#33363F"/>
<path d="M0.904297 35V26.4102H4.14453C4.71484 26.4102 5.15039 26.4375 5.45117 26.4922C5.87305 26.5625 6.22656 26.6973 6.51172 26.8965C6.79688 27.0918 7.02539 27.3672 7.19727 27.7227C7.37305 28.0781 7.46094 28.4688 7.46094 28.8945C7.46094 29.625 7.22852 30.2441 6.76367 30.752C6.29883 31.2559 5.45898 31.5078 4.24414 31.5078H2.04102V35H0.904297ZM2.04102 30.4941H4.26172C4.99609 30.4941 5.51758 30.3574 5.82617 30.084C6.13477 29.8105 6.28906 29.4258 6.28906 28.9297C6.28906 28.5703 6.19727 28.2637 6.01367 28.0098C5.83398 27.752 5.5957 27.582 5.29883 27.5C5.10742 27.4492 4.75391 27.4238 4.23828 27.4238H2.04102V30.4941ZM8.76172 35V28.7773H9.71094V29.7207C9.95312 29.2793 10.1758 28.9883 10.3789 28.8477C10.5859 28.707 10.8125 28.6367 11.0586 28.6367C11.4141 28.6367 11.7754 28.75 12.1426 28.9766L11.7793 29.9551C11.5215 29.8027 11.2637 29.7266 11.0059 29.7266C10.7754 29.7266 10.5684 29.7969 10.3848 29.9375C10.2012 30.0742 10.0703 30.2656 9.99219 30.5117C9.875 30.8867 9.81641 31.2969 9.81641 31.7422V35H8.76172ZM12.377 31.8887C12.377 30.7363 12.6973 29.8828 13.3379 29.3281C13.873 28.8672 14.5254 28.6367 15.2949 28.6367C16.1504 28.6367 16.8496 28.918 17.3926 29.4805C17.9355 30.0391 18.207 30.8125 18.207 31.8008C18.207 32.6016 18.0859 33.2324 17.8438 33.6934C17.6055 34.1504 17.2559 34.5059 16.7949 34.7598C16.3379 35.0137 15.8379 35.1406 15.2949 35.1406C14.4238 35.1406 13.7188 34.8613 13.1797 34.3027C12.6445 33.7441 12.377 32.9395 12.377 31.8887ZM13.4609 31.8887C13.4609 32.6855 13.6348 33.2832 13.9824 33.6816C14.3301 34.0762 14.7676 34.2734 15.2949 34.2734C15.8184 34.2734 16.2539 34.0742 16.6016 33.6758C16.9492 33.2773 17.123 32.6699 17.123 31.8535C17.123 31.084 16.9473 30.502 16.5957 30.1074C16.248 29.709 15.8145 29.5098 15.2949 29.5098C14.7676 29.5098 14.3301 29.707 13.9824 30.1016C13.6348 30.4961 13.4609 31.0918 13.4609 31.8887ZM19.7012 35V29.5977H18.7695V28.7773H19.7012V28.1152C19.7012 27.6973 19.7383 27.3867 19.8125 27.1836C19.9141 26.9102 20.0918 26.6895 20.3457 26.5215C20.6035 26.3496 20.9629 26.2637 21.4238 26.2637C21.7207 26.2637 22.0488 26.2988 22.4082 26.3691L22.25 27.2891C22.0312 27.25 21.8242 27.2305 21.6289 27.2305C21.3086 27.2305 21.082 27.2988 20.9492 27.4355C20.8164 27.5723 20.75 27.8281 20.75 28.2031V28.7773H21.9629V29.5977H20.75V35H19.7012ZM22.7949 27.623V26.4102H23.8496V27.623H22.7949ZM22.7949 35V28.7773H23.8496V35H22.7949ZM25.4375 35V26.4102H26.4922V35H25.4375ZM32.3926 32.9961L33.4824 33.1309C33.3105 33.7676 32.9922 34.2617 32.5273 34.6133C32.0625 34.9648 31.4688 35.1406 30.7461 35.1406C29.8359 35.1406 29.1133 34.8613 28.5781 34.3027C28.0469 33.7402 27.7812 32.9531 27.7812 31.9414C27.7812 30.8945 28.0508 30.082 28.5898 29.5039C29.1289 28.9258 29.8281 28.6367 30.6875 28.6367C31.5195 28.6367 32.1992 28.9199 32.7266 29.4863C33.2539 30.0527 33.5176 30.8496 33.5176 31.877C33.5176 31.9395 33.5156 32.0332 33.5117 32.1582H28.8711C28.9102 32.8418 29.1035 33.3652 29.4512 33.7285C29.7988 34.0918 30.2324 34.2734 30.752 34.2734C31.1387 34.2734 31.4688 34.1719 31.7422 33.9688C32.0156 33.7656 32.2324 33.4414 32.3926 32.9961ZM28.9297 31.291H32.4043C32.3574 30.7676 32.2246 30.375 32.0059 30.1133C31.6699 29.707 31.2344 29.5039 30.6992 29.5039C30.2148 29.5039 29.8066 29.666 29.4746 29.9902C29.1465 30.3145 28.9648 30.748 28.9297 31.291Z" fill="black"/>
</svg>
